{"title":"The Last Stand 2013 HDRip XviD Lum1x","uid":8395580,"size":1568420179,"categoryP":"video","categoryS":"movies","magnet":"?xt=urn:btih:0b71474c0368c34c6435169c2528fe4aebfb289a&amp;dn=The+Last+Stand+2013+HDRip+XviD+Lum1x&amp;tr=udp%3A%2F%2Ftracker.openbittorrent.com%3A80&amp;tr=udp%3A%2F%2Fopen.demonii.com%3A1337&amp;tr=udp%3A%2F%2Ftracker.coppersurfer.tk%3A6969&amp;tr=udp%3A%2F%2Fexodus.desync.com%3A6969","seeders":7,"leechers":0,"uploader":"juggs99","files":2,"time":1366563888,"description":"Format : AVI\nFormat/Info : Audio Video Interleave\nFile size : 1.46 GiB\nDuration : 1h 47mn\nOverall bit rate : 1 953 Kbps\nWriting application : VirtualDubMod 1.5.10.2 (build 2542/release)\nWriting library : VirtualDubMod build 2542/release\n\nVideo\nID : 0\nFormat : MPEG-4 Visual\nFormat profile : Advanced Simple@L5\nFormat settings, BVOP : 2\nFormat settings, QPel : No\nFormat settings, GMC : No warppoints\nFormat settings, Matrix : Default (MPEG)\nMuxing mode : Packed bitstream\nCodec ID : XVID\nCodec ID/Hint : XviD\nDuration : 1h 47mn\nBit rate : 1 496 Kbps\nWidth : 720 pixels\nHeight : 304 pixels\nDisplay aspect ratio : 2.35:1\nFrame rate : 24.000 fps\nColor space : YUV\nChroma subsampling : 4:2:0\nBit depth : 8 bits\nScan type : Progressive\nCompression mode : Lossy\nBits/(Pixel*Frame) : 0.285\nStream size : 1.12 GiB (77%)\nWriting library : XviD 1.2.1 (UTC 2008-12-04)\n\nAudio\nID : 1\nFormat : AC-3\nFormat/Info : Audio Coding 3\nMode extension : CM (complete main)\nFormat settings, Endianness : Big\nCodec ID : 2000\nDuration : 1h 47mn\nBit rate mode : Constant\nBit rate : 448 Kbps\nChannel(s) : 6 channels\nChannel positions : Front: L C R, Side: L R, LFE\nSampling rate : 48.0 KHz\nBit depth : 16 bits\nCompression mode : Lossy\nStream size : 343 MiB (23%)\nAlignment : Split accross interleaves\nInterleave, duration : 42 ms (1.00 video frame)\nInterleave, preload duration : 500 ms\n &lt;a href=&quot;\nhttp://www.imdb.com/title/tt1549920/&quot; rel=&quot;nofollow&quot; target=&quot;_NEW&quot;&gt;\nhttp://www.imdb.com/title/tt1549920/&lt;/a&gt;\n\n &lt;a href=&quot;\nhttp://s10.postimg.org/bd846j5mh/thelaststand2013enghdrip.jpg&quot; rel=&quot;nofollow&quot; target=&quot;_NEW&quot;&gt;\nhttp://s10.postimg.org/bd846j5mh/thelaststand2013enghdrip.jpg&lt;/a&gt; &lt;a href=&quot;\nhttp://s10.postimg.org/3yise5jqx/thelaststand2013enghdrip.jpg&quot; rel=&quot;nofollow&quot; target=&quot;_NEW&quot;&gt;\nhttp://s10.postimg.org/3yise5jqx/thelaststand2013enghdrip.jpg&lt;/a&gt;","torrent":{"xt":"urn:btih:0b71474c0368c34c6435169c2528fe4aebfb289a","amp;dn":"The+Last+Stand+2013+HDRip+XviD+Lum1x","amp;tr":["udp%3A%2F%2Ftracker.openbittorrent.com%3A80","udp%3A%2F%2Fopen.demonii.com%3A1337","udp%3A%2F%2Ftracker.coppersurfer.tk%3A6969","udp%3A%2F%2Fexodus.desync.com%3A6969"],"infoHash":"0b71474c0368c34c6435169c2528fe4aebfb289a","infoHashBuffer":{"type":"Buffer","data":[11,113,71,76,3,104,195,76,100,53,22,156,37,40,254,74,235,251,40,154]},"announce":[],"urlList":[]}}